<?xml version="1.0" standalone="no"?><svg xmlns="http://www.w3.org/2000/svg" viewBox="0 0 1440 320"><path fill="#f3f4f5" fill-opacity="0.4" d="M0,64L12,58.7C24,53,48,43,72,42.7C96,43,120,53,144,90.7C168,128,192,192,216,218.7C240,245,264,235,288,197.3C312,160,336,96,360,69.3C384,43,408,53,432,80C456,107,480,149,504,181.3C528,213,552,235,576,208C600,181,624,107,648,112C672,117,696,203,720,234.7C744,267,768,245,792,197.3C816,149,840,75,864,64C888,53,912,107,936,112C960,117,984,75,1008,53.3C1032,32,1056,32,1080,69.3C1104,107,1128,181,1152,213.3C1176,245,1200,235,1224,240C1248,245,1272,267,1296,256C1320,245,1344,203,1368,192C1392,181,1416,203,1428,213.3L1440,224L1440,0L1428,0C1416,0,1392,0,1368,0C1344,0,1320,0,1296,0C1272,0,1248,0,1224,0C1200,0,1176,0,1152,0C1128,0,1104,0,1080,0C1056,0,1032,0,1008,0C984,0,960,0,936,0C912,0,888,0,864,0C840,0,816,0,792,0C768,0,744,0,720,0C696,0,672,0,648,0C624,0,600,0,576,0C552,0,528,0,504,0C480,0,456,0,432,0C408,0,384,0,360,0C336,0,312,0,288,0C264,0,240,0,216,0C192,0,168,0,144,0C120,0,96,0,72,0C48,0,24,0,12,0L0,0Z"></path></svg>